<?xml version="1.0" encoding="UTF-8" standalone="no"?>
<svg
   xmlns:dc="http://purl.org/dc/elements/1.1/"
   xmlns:cc="http://creativecommons.org/ns#"
   xmlns:rdf="http://www.w3.org/1999/02/22-rdf-syntax-ns#"
   xmlns:svg="http://www.w3.org/2000/svg"
   xmlns="http://www.w3.org/2000/svg"
   xmlns:sodipodi="http://sodipodi.sourceforge.net/DTD/sodipodi-0.dtd"
   xmlns:inkscape="http://www.inkscape.org/namespaces/inkscape"
   sodipodi:docname="floating_1.svg"
   inkscape:version="1.0 (4035a4fb49, 2020-05-01)"
   id="svg8"
   version="1.1"
   viewBox="0 0 26.458333 26.458334"
   height="100"
   width="100">
  <defs
     id="defs2">
    <marker
       inkscape:isstock="true"
       style="overflow:visible"
       id="Arrow1Lstart"
       refX="0.0"
       refY="0.0"
       orient="auto"
       inkscape:stockid="Arrow1Lstart">
      <path
         transform="scale(0.8) translate(12.5,0)"
         style="fill-rule:evenodd;stroke:#990b41;stroke-width:1pt;stroke-opacity:1;fill:#e92f52;fill-opacity:1"
         d="M 0.0,0.0 L 5.0,-5.0 L -12.5,0.0 L 5.0,5.0 L 0.0,0.0 z "
         id="path851" />
    </marker>
  </defs>
  <sodipodi:namedview
     inkscape:document-rotation="0"
     inkscape:window-maximized="1"
     inkscape:window-y="32"
     inkscape:window-x="0"
     inkscape:window-height="1017"
     inkscape:window-width="1916"
     borderlayer="true"
     units="px"
     showgrid="false"
     inkscape:current-layer="layer1"
     inkscape:document-units="mm"
     inkscape:cy="54.128135"
     inkscape:cx="60.197001"
     inkscape:zoom="5.6568543"
     inkscape:pageshadow="2"
     inkscape:pageopacity="0.0"
     borderopacity="1.0"
     bordercolor="#666666"
     pagecolor="#ffffff"
     id="base" />
  <metadata
     id="metadata5">
    <rdf:RDF>
      <cc:Work
         rdf:about="">
        <dc:format>image/svg+xml</dc:format>
        <dc:type
           rdf:resource="http://purl.org/dc/dcmitype/StillImage" />
        <dc:title />
      </cc:Work>
    </rdf:RDF>
  </metadata>
  <g
     transform="translate(0,-270.54165)"
     id="layer1"
     inkscape:groupmode="layer"
     inkscape:label="Layer 1">
    <circle
       r="12.902715"
       cy="283.77081"
       cx="13.229167"
       id="path815"
       style="opacity:1;fill:#494d63;fill-opacity:1;fill-rule:nonzero;stroke:#2f3240;stroke-width:0.65290308;stroke-linecap:butt;stroke-linejoin:miter;stroke-miterlimit:0;stroke-dasharray:none;stroke-dashoffset:0;stroke-opacity:1" />
    <path
       transform="matrix(0.26458333,0,0,0.26458333,0,270.54165)"
       id="path249"
       d="M 45.524536,99.729717 C 33.892567,98.549195 23.515712,93.773585 15.407673,85.869409 10.844198,81.420677 7.8038761,77.249445 5.1173943,71.751453 2.1507807,65.680162 0.55638965,59.486626 0.19384163,52.625534 -0.45081034,40.425725 3.3352763,28.581165 10.958286,18.949573 12.691443,16.759748 16.620699,12.800501 18.742867,11.105574 32.220224,0.34151709 50.064327,-2.7573848 66.310215,2.8447746 78.33948,6.9928928 88.580538,15.886299 94.353958,27.198158 c 2.172278,4.256139 3.654991,8.446943 4.524359,12.787842 0.791776,3.95346 0.914493,5.330457 0.905871,10.16466 -0.0068,3.825352 -0.07301,5.011262 -0.394671,7.071068 -1.399002,8.958855 -4.964378,17.093975 -10.57545,24.130018 -1.538355,1.929032 -5.557593,5.949012 -7.492251,7.493635 -4.915704,3.924678 -11.464336,7.35434 -17.254941,9.036791 -4.475597,1.30038 -8.199607,1.849699 -13.15065,1.939827 -2.090385,0.03805 -4.516645,-0.0035 -5.391689,-0.09228 z m 8.485281,-2.294201 C 60.167593,96.867442 65.270132,95.45028 70.803603,92.771266 85.122282,85.83892 94.785721,72.552952 97.174577,56.514621 97.602288,53.643043 97.603158,46.260607 97.176168,43.467583 96.065687,36.204985 93.655277,29.796538 89.849145,23.987709 78.768188,7.0762078 58.304829,-1.0289006 38.746572,3.74705 19.446077,8.4600579 5.0600621,24.695507 2.737887,44.384934 2.1787243,49.126006 2.4606255,55.23407 3.4562271,59.949489 6.2937776,73.388842 15.14905,85.242516 27.299019,91.865469 c 5.543143,3.02157 12.708457,5.121435 19.197788,5.626101 1.808444,0.14064 5.695251,0.11164 7.51301,-0.05605 z"
       style="fill:#000080;stroke-width:0.176777" />
    <path
       transform="matrix(0.26458333,0,0,0.26458333,0,270.54165)"
       id="path251"
       d="M 46.143254,97.316409 C 44.337371,97.179638 40.269852,96.492614 38.367176,96.002988 29.926695,93.830956 22.712642,89.724366 16.517257,83.564948 1.7871851,68.920394 -1.6700688,46.392089 7.9847687,27.965185 14.340757,15.834356 25.943238,6.8571207 39.265483,3.7622294 c 3.502112,-0.8135755 6.422016,-1.126269 10.590082,-1.1340951 5.52707,-0.010378 9.60418,0.5911332 14.4073,2.1255622 7.538946,2.4084296 13.565071,6.0859325 19.190261,11.7110495 7.844155,7.844053 12.423834,17.331653 13.710572,28.40383 0.343007,2.951506 0.250542,9.023732 -0.180846,11.876482 -1.564067,10.343086 -6.192942,19.546077 -13.488038,26.816517 -7.886318,7.85966 -18.166369,12.663742 -29.30822,13.69634 -1.801818,0.166987 -6.1895,0.198897 -8.04334,0.05849 z"
       style="fill:#0055d4;stroke-width:0.176777" />
    <path
       style="fill:#0000d2;stroke-width:0.176777;fill-opacity:1"
       d="M 43.982192,99.477672 C 33.921249,98.03575 25.391181,94.28576 17.941136,88.029498 15.907389,86.321634 12.631971,82.945494 10.938048,80.811059 -1.0442168,65.712747 -3.1634336,45.040178 5.4994734,27.758766 7.6189551,23.530666 9.9011329,20.189151 12.993751,16.785805 21.315301,7.6281561 31.392264,2.3336393 43.933545,0.52978928 46.379696,0.17795212 54.011957,0.23590105 56.661467,0.62642768 68.434664,2.3617479 79.059071,7.9532727 86.774624,16.4747 93.329769,23.714515 97.3686,32.041321 99.20746,42.10732 c 0.364388,1.994671 0.404014,2.751604 0.407206,7.778175 0.0039,6.153862 -0.109891,7.242744 -1.235953,11.826122 -1.740595,7.084687 -5.169405,14.02914 -9.697277,19.640129 -1.755293,2.175181 -6.247804,6.525762 -8.435191,8.168703 -3.95817,2.972974 -9.634355,6.030113 -14.038836,7.561183 -2.653482,0.922394 -6.450304,1.846539 -9.104,2.215906 -2.865262,0.398817 -10.832215,0.508189 -13.121217,0.180134 z m 12.94444,-2.29501 c 10.724657,-1.652313 20.825362,-6.978193 28.055211,-14.7929 6.959716,-7.52272 11.57439,-17.84099 12.44486,-27.826319 0.288044,-3.304209 0.107006,-9.51844 -0.353728,-12.141946 C 95.548085,33.73848 92.312035,26.541288 86.916791,19.833457 85.492611,18.062794 81.769878,14.368203 79.907602,12.877254 73.249078,7.5463995 65.073351,4.0087198 56.48469,2.7420396 53.250228,2.265012 46.368724,2.3090211 43.049662,2.8279602 32.371628,4.4974829 23.301071,9.1689253 15.822196,16.850421 6.4772598,26.448533 1.7125099,39.165123 2.4756114,52.470976 c 0.2164403,3.77397 0.5388636,5.992242 1.3416041,9.230236 0.8365241,3.374264 1.7680063,5.895901 3.4387432,9.309098 2.3132872,4.725883 5.3339263,8.947163 9.1035753,12.722058 7.517822,7.528287 16.798984,12.053102 27.927565,13.615435 2.512822,0.352774 9.904773,0.256193 12.639533,-0.165141 z"
       id="path933"
       transform="matrix(0.26458333,0,0,0.26458333,0,270.54165)" />
    <path
       transform="matrix(0.26458333,0,0,0.26458333,0,270.54165)"
       id="path850"
       d="M 44.375487,99.443039 C 40.085163,98.777489 37.967296,98.293828 34.652769,97.22265 26.969315,94.739533 20.306078,90.568041 14.491461,84.600743 11.876328,81.916942 10.338919,80.039391 8.5760468,77.376579 4.4308703,71.11531 1.9820235,64.709916 0.76926676,56.956562 0.31413882,54.046855 0.31142049,46.064069 0.76457141,43.16798 2.1895347,34.061039 5.6765673,25.933782 11.079732,19.12635 c 1.761375,-2.219152 6.394595,-6.756308 8.756085,-8.57454 6.343682,-4.8843241 13.319264,-7.9460102 21.799631,-9.56817953 2.573422,-0.49225774 2.815931,-0.50712013 8.220116,-0.50377896 6.192348,0.003828 7.395485,0.13147323 11.907106,1.26326319 11.574519,2.9035972 21.366599,9.4607863 28.334875,18.9742253 4.356564,5.947801 7.249419,12.618579 8.841545,20.388151 0.441027,2.152219 0.482497,2.727362 0.550219,7.630955 0.0808,5.850299 -0.07117,8.036695 -0.78021,11.22532 -1.646719,7.40545 -4.72375,14.166962 -9.157276,20.12233 -1.535997,2.063239 -6.220829,6.848543 -8.496972,8.679199 -3.559573,2.862893 -8.789938,5.837392 -13.698394,7.790252 -3.253377,1.294376 -8.391786,2.507478 -11.932427,2.817065 -1.976582,0.172829 -10.059748,0.225818 -11.048543,0.07243 z m 10.712111,-2.004527 c 7.426353,-0.657457 16.103736,-3.968329 22.703457,-8.662548 3.276058,-2.330178 6.925314,-5.745762 9.254228,-8.661655 5.043533,-6.3147 8.593336,-14.151775 10.019155,-22.119781 0.483058,-2.699518 0.672713,-9.610454 0.358487,-13.063227 C 96.674371,36.706027 93.349338,28.285759 88.015594,21.108307 86.488974,19.053981 81.281281,13.797084 79.257891,12.267858 74.489243,8.6638362 68.941653,5.8508332 63.351698,4.2023414 58.934221,2.8996168 54.998983,2.3329768 50.367372,2.3327118 38.711947,2.3320449 28.580542,5.8905848 19.891915,13.036867 5.1242656,25.183064 -0.90163658,43.958626 3.9895403,62.585636 c 1.5185611,5.783119 4.9089311,12.426106 8.8558567,17.351897 1.570774,1.960336 5.409498,5.801425 7.311683,7.316186 4.828008,3.844672 10.580157,6.818622 16.464129,8.512206 2.339673,0.673427 5.692349,1.393124 7.670686,1.646613 1.712368,0.219408 8.428224,0.235567 10.795703,0.02597 z"
       style="fill:#7373ff;stroke-width:0.176777;fill-opacity:1" />
  </g>
</svg>
