<?xml version="1.0" encoding="UTF-8" standalone="no"?>
<svg
   xmlns:dc="http://purl.org/dc/elements/1.1/"
   xmlns:cc="http://creativecommons.org/ns#"
   xmlns:rdf="http://www.w3.org/1999/02/22-rdf-syntax-ns#"
   xmlns:svg="http://www.w3.org/2000/svg"
   xmlns="http://www.w3.org/2000/svg"
   xmlns:sodipodi="http://sodipodi.sourceforge.net/DTD/sodipodi-0.dtd"
   xmlns:inkscape="http://www.inkscape.org/namespaces/inkscape"
   sodipodi:docname="floating_1.svg"
   inkscape:version="1.0 (4035a4fb49, 2020-05-01)"
   id="svg8"
   version="1.1"
   viewBox="0 0 26.458333 26.458334"
   height="100"
   width="100">
  <defs
     id="defs2">
    <marker
       inkscape:isstock="true"
       style="overflow:visible"
       id="Arrow1Lstart"
       refX="0.0"
       refY="0.0"
       orient="auto"
       inkscape:stockid="Arrow1Lstart">
      <path
         transform="scale(0.8) translate(12.5,0)"
         style="fill-rule:evenodd;stroke:#990b41;stroke-width:1pt;stroke-opacity:1;fill:#e92f52;fill-opacity:1"
         d="M 0.0,0.0 L 5.0,-5.0 L -12.5,0.0 L 5.0,5.0 L 0.0,0.0 z "
         id="path851" />
    </marker>
  </defs>
  <sodipodi:namedview
     inkscape:document-rotation="0"
     inkscape:window-maximized="1"
     inkscape:window-y="32"
     inkscape:window-x="0"
     inkscape:window-height="1017"
     inkscape:window-width="1916"
     borderlayer="true"
     units="px"
     showgrid="false"
     inkscape:current-layer="layer1"
     inkscape:document-units="mm"
     inkscape:cy="54.481689"
     inkscape:cx="60.197001"
     inkscape:zoom="5.6568543"
     inkscape:pageshadow="2"
     inkscape:pageopacity="0.0"
     borderopacity="1.0"
     bordercolor="#666666"
     pagecolor="#ffffff"
     id="base" />
  <metadata
     id="metadata5">
    <rdf:RDF>
      <cc:Work
         rdf:about="">
        <dc:format>image/svg+xml</dc:format>
        <dc:type
           rdf:resource="http://purl.org/dc/dcmitype/StillImage" />
        <dc:title></dc:title>
      </cc:Work>
    </rdf:RDF>
  </metadata>
  <g
     transform="translate(0,-270.54165)"
     id="layer1"
     inkscape:groupmode="layer"
     inkscape:label="Layer 1">
    <circle
       r="12.902715"
       cy="283.77081"
       cx="13.229167"
       id="path815"
       style="opacity:1;fill:#494d63;fill-opacity:1;fill-rule:nonzero;stroke:#2f3240;stroke-width:0.65290308;stroke-linecap:butt;stroke-linejoin:miter;stroke-miterlimit:0;stroke-dasharray:none;stroke-dashoffset:0;stroke-opacity:1" />
    <path
       transform="matrix(0.26458333,0,0,0.26458333,0,270.54165)"
       id="path249"
       d="M 45.524536,99.729717 C 33.892567,98.549195 23.515712,93.773585 15.407673,85.869409 10.844198,81.420677 7.8038761,77.249445 5.1173943,71.751453 2.1507807,65.680162 0.55638965,59.486626 0.19384163,52.625534 -0.45081034,40.425725 3.3352763,28.581165 10.958286,18.949573 12.691443,16.759748 16.620699,12.800501 18.742867,11.105574 32.220224,0.34151709 50.064327,-2.7573848 66.310215,2.8447746 78.33948,6.9928928 88.580538,15.886299 94.353958,27.198158 c 2.172278,4.256139 3.654991,8.446943 4.524359,12.787842 0.791776,3.95346 0.914493,5.330457 0.905871,10.16466 -0.0068,3.825352 -0.07301,5.011262 -0.394671,7.071068 -1.399002,8.958855 -4.964378,17.093975 -10.57545,24.130018 -1.538355,1.929032 -5.557593,5.949012 -7.492251,7.493635 -4.915704,3.924678 -11.464336,7.35434 -17.254941,9.036791 -4.475597,1.30038 -8.199607,1.849699 -13.15065,1.939827 -2.090385,0.03805 -4.516645,-0.0035 -5.391689,-0.09228 z m 8.485281,-2.294201 C 60.167593,96.867442 65.270132,95.45028 70.803603,92.771266 85.122282,85.83892 94.785721,72.552952 97.174577,56.514621 97.602288,53.643043 97.603158,46.260607 97.176168,43.467583 96.065687,36.204985 93.655277,29.796538 89.849145,23.987709 78.768188,7.0762078 58.304829,-1.0289006 38.746572,3.74705 19.446077,8.4600579 5.0600621,24.695507 2.737887,44.384934 2.1787243,49.126006 2.4606255,55.23407 3.4562271,59.949489 6.2937776,73.388842 15.14905,85.242516 27.299019,91.865469 c 5.543143,3.02157 12.708457,5.121435 19.197788,5.626101 1.808444,0.14064 5.695251,0.11164 7.51301,-0.05605 z"
       style="fill:#000080;stroke-width:0.176777" />
    <path
       transform="matrix(0.26458333,0,0,0.26458333,0,270.54165)"
       id="path251"
       d="M 46.143254,97.316409 C 44.337371,97.179638 40.269852,96.492614 38.367176,96.002988 29.926695,93.830956 22.712642,89.724366 16.517257,83.564948 1.7871851,68.920394 -1.6700688,46.392089 7.9847687,27.965185 14.340757,15.834356 25.943238,6.8571207 39.265483,3.7622294 c 3.502112,-0.8135755 6.422016,-1.126269 10.590082,-1.1340951 5.52707,-0.010378 9.60418,0.5911332 14.4073,2.1255622 7.538946,2.4084296 13.565071,6.0859325 19.190261,11.7110495 7.844155,7.844053 12.423834,17.331653 13.710572,28.40383 0.343007,2.951506 0.250542,9.023732 -0.180846,11.876482 -1.564067,10.343086 -6.192942,19.546077 -13.488038,26.816517 -7.886318,7.85966 -18.166369,12.663742 -29.30822,13.69634 -1.801818,0.166987 -6.1895,0.198897 -8.04334,0.05849 z"
       style="fill:#0055d4;stroke-width:0.176777" />
  </g>
</svg>
