<?xml version="1.0" encoding="UTF-8" standalone="no"?>
<svg
   xmlns:dc="http://purl.org/dc/elements/1.1/"
   xmlns:cc="http://creativecommons.org/ns#"
   xmlns:rdf="http://www.w3.org/1999/02/22-rdf-syntax-ns#"
   xmlns:svg="http://www.w3.org/2000/svg"
   xmlns="http://www.w3.org/2000/svg"
   xmlns:sodipodi="http://sodipodi.sourceforge.net/DTD/sodipodi-0.dtd"
   xmlns:inkscape="http://www.inkscape.org/namespaces/inkscape"
   inkscape:version="1.0 (4035a4fb49, 2020-05-01)"
   sodipodi:docname="floating_2.svg"
   width="100"
   height="100"
   viewBox="0 0 26.458333 26.458334"
   version="1.1"
   id="svg8">
  <sodipodi:namedview
     inkscape:document-rotation="0"
     inkscape:current-layer="layer1"
     inkscape:window-maximized="1"
     inkscape:window-y="32"
     inkscape:window-x="0"
     inkscape:cy="46.626134"
     inkscape:cx="21.373349"
     inkscape:zoom="6.675088"
     showgrid="false"
     id="namedview11"
     inkscape:window-height="1017"
     inkscape:window-width="1916"
     inkscape:pageshadow="2"
     inkscape:pageopacity="0"
     guidetolerance="10"
     gridtolerance="10"
     objecttolerance="10"
     borderopacity="1"
     bordercolor="#666666"
     pagecolor="#ffffff" />
  <defs
     id="defs2">
    <marker
       orient="auto"
       refY="0.0"
       refX="0.0"
       id="Arrow1Lstart"
       style="overflow:visible">
      <path
         id="path851"
         d="M 0.0,0.0 L 5.0,-5.0 L -12.5,0.0 L 5.0,5.0 L 0.0,0.0 z "
         style="fill-rule:evenodd;stroke:#990b41;stroke-width:1pt;stroke-opacity:1;fill:#e92f52;fill-opacity:1"
         transform="scale(0.8) translate(12.5,0)" />
    </marker>
  </defs>
  <metadata
     id="metadata5">
    <rdf:RDF>
      <cc:Work
         rdf:about="">
        <dc:format>image/svg+xml</dc:format>
        <dc:type
           rdf:resource="http://purl.org/dc/dcmitype/StillImage" />
        <dc:title />
      </cc:Work>
    </rdf:RDF>
  </metadata>
  <g
     id="layer1"
     transform="translate(0,-270.54165)">
    <circle
       r="12.902715"
       style="opacity:1;fill:#0055d4;fill-opacity:1;fill-rule:nonzero;stroke:#008c49;stroke-width:0.65290308;stroke-linecap:butt;stroke-linejoin:miter;stroke-miterlimit:0;stroke-dasharray:none;stroke-dashoffset:0;stroke-opacity:1"
       id="path815"
       cx="13.229167"
       cy="283.77081" />
    <rect
       transform="rotate(90)"
       style="opacity:1;fill:#1a4509;fill-opacity:1;fill-rule:nonzero;stroke:#990b41;stroke-width:0;stroke-linecap:butt;stroke-linejoin:miter;stroke-miterlimit:0;stroke-dasharray:none;stroke-dashoffset:0;stroke-opacity:1"
       id="rect1152"
       width="11.738342"
       height="1.2033366"
       x="278.08356"
       y="-14.012733"
       ry="0.6016683" />
    <path
       transform="matrix(0.26458333,0,0,0.26458333,0,270.54165)"
       id="path2143"
       d="M 46.40742,99.804506 C 34.578223,98.87634 23.804484,94.036691 15.264425,85.814824 7.6135411,78.449002 2.3866156,68.425174 0.72030673,57.923143 -0.33509072,51.271424 -0.06151519,44.562836 1.5293493,38.083895 5.103775,23.526719 15.124319,11.287222 28.745864,4.8405445 44.973838,-2.8396798 64.316101,-1.1099346 78.906231,9.3262994 90.127677,17.352934 97.283122,29.092812 99.449021,43.030676 c 0.297919,1.917158 0.337561,2.735228 0.337561,6.9662 0,4.230972 -0.03964,5.049042 -0.337561,6.966201 -1.697166,10.921497 -6.182476,20.041575 -13.657046,27.769162 -8.042869,8.315124 -18.523204,13.487339 -30.111963,14.860741 -2.361499,0.279865 -7.041114,0.386616 -9.272592,0.211526 z m 7.84939,-2.396372 c 10.526098,-0.979886 20.233119,-5.276508 27.970914,-12.380773 5.839953,-5.361808 10.314313,-12.249564 12.878334,-19.824693 1.708396,-5.047283 2.429105,-9.558792 2.429105,-15.205792 0,-3.63163 -0.12492,-5.177915 -0.671702,-8.314497 C 94.027102,25.41177 82.708435,11.641115 67.215441,5.6116431 59.459563,2.5932561 50.524928,1.6785291 42.197044,3.0502623 24.23025,6.0096753 9.3966057,19.158655 4.3052433,36.63867 c -1.308503,4.492443 -1.8494548,8.39962 -1.8494548,13.358206 0,4.958587 0.5409518,8.865763 1.8494548,13.358206 4.5248464,15.535015 16.8907717,27.882142 32.3977667,32.348522 2.886507,0.831381 6.169329,1.437082 9.538925,1.75999 1.261244,0.120866 6.510992,0.08454 8.014875,-0.05546 z"
       style="fill:#000080;fill-opacity:1;stroke-width:0.149811" />
    <path
       transform="matrix(0.26458333,0,0,0.26458333,0,270.54165)"
       id="path2145"
       d="m 49.98728,72.674712 c -0.205947,-0.08212 -0.532573,-0.296947 -0.725835,-0.47739 -0.816827,-0.762641 -0.772367,0.474286 -0.772116,-21.481405 2.18e-4,-19.069655 0.01664,-20.376914 0.262169,-20.865602 0.781391,-1.555264 3.120193,-1.610267 3.841445,-0.09034 0.217379,0.458092 0.240611,2.49086 0.240105,21.008598 -5.54e-4,20.29458 -0.0036,20.506434 -0.302717,20.997028 -0.307843,0.504922 -1.310721,1.076194 -1.868979,1.064632 -0.164792,-0.0034 -0.468124,-0.0734 -0.674072,-0.155519 z"
       style="fill:#000080;fill-opacity:1;stroke-width:0.149811" />
    <path
       style="fill:#0000d2;stroke-width:0.149811"
       d="M 44.668922,99.580525 C 35.015454,98.420846 26.217131,94.755284 18.751661,88.782863 16.71958,87.157185 12.83774,83.293769 11.309927,81.376449 5.1004765,73.583935 1.3903618,64.553378 0.38748469,54.790821 0.16726057,52.647038 0.16768669,47.301386 0.38824897,45.202932 1.629256,33.395856 6.5146472,23.119614 14.849535,14.784145 22.305943,7.3272166 31.441693,2.6039883 41.763897,0.86928428 64.440586,-2.9416597 86.76473,9.3037294 95.842256,30.532708 c 1.426251,3.335472 2.730406,7.847943 3.460517,11.973631 0.318308,1.798689 0.344674,2.371192 0.344961,7.490538 3e-4,5.097398 -0.02676,5.692248 -0.336497,7.399589 -1.746361,9.626448 -4.890103,16.762598 -10.467639,23.761048 -1.696364,2.128525 -5.667089,6.096265 -7.770662,7.764819 -7.145332,5.667682 -15.164715,9.110616 -24.344248,10.45163 -2.749841,0.401718 -9.476199,0.516928 -12.059766,0.206562 z M 55.534675,97.332194 C 64.44547,96.237047 72.349934,92.97389 79.499924,87.43875 81.655589,85.76995 85.777592,81.661801 87.380663,79.584501 92.604811,72.814914 95.908885,65.238749 97.094495,57.3109 99.169466,43.436133 95.269632,29.696262 86.232668,19.042576 79.181321,10.729739 69.112167,4.968155 58.376606,3.1032996 54.317998,2.3982858 48.530775,2.2135832 44.594017,2.6634203 31.592417,4.1490591 19.744063,10.937978 11.880739,21.40761 6.8884369,28.054616 3.7091224,35.921603 2.6968745,44.13243 2.39581,46.574507 2.3566354,52.852322 2.6270922,55.315159 4.2390717,69.994178 12.879097,83.381648 25.628671,90.955444 c 5.851871,3.476262 11.979264,5.531533 19.190062,6.436794 1.8473,0.231915 8.650552,0.193794 10.715942,-0.06004 z"
       id="path1550"
       transform="matrix(0.26458333,0,0,0.26458333,0,270.54165)" />
    <path
       transform="matrix(0.26458333,0,0,0.26458333,0,270.54165)"
       id="path1431"
       d="M 43.925703,99.415299 C 34.919314,98.262048 25.975679,94.457447 18.826566,88.738186 16.880289,87.181173 12.700125,82.994714 11.182501,81.082609 6.4555896,75.12702 3.0469867,67.978925 1.3954983,60.558535 0.53071834,56.672946 0.35085623,54.854484 0.35085623,49.996876 c 0,-3.889074 0.0447547,-4.786859 0.33232979,-6.666578 C 2.1865667,33.50353 5.641708,25.682965 11.769458,18.236995 13.212658,16.48333 16.882613,12.853683 18.682863,11.399522 26.41314,5.1553553 35.01374,1.6088353 45.19326,0.46776807 47.493664,0.20990568 52.943132,0.2557909 55.455297,0.55417571 63.475564,1.506791 70.690582,4.1189207 77.26186,8.4490377 c 3.128708,2.0616483 4.969544,3.5824943 7.935235,6.5558643 7.435986,7.455236 11.708069,15.711793 13.958415,26.977099 0.325788,1.630904 0.34415,2.054533 0.34415,7.93997 0,6.839185 0.0089,6.745334 -1.062878,11.235807 -2.121372,8.888199 -5.989137,16.169516 -12.005023,22.600243 -4.860315,5.195468 -10.134279,8.990027 -16.237642,11.682805 -5.014486,2.212369 -10.689028,3.69151 -15.598968,4.066067 -2.788851,0.21275 -8.688165,0.162104 -10.669446,-0.09159 z m 13.939974,-2.353281 c 11.688337,-2.113534 21.183097,-7.595608 28.973107,-16.728463 1.383561,-1.622061 3.681775,-5.059846 5.057617,-7.565443 2.643843,-4.814798 4.429716,-10.099663 5.315559,-15.73013 0.290279,-1.845033 0.329991,-2.683088 0.33009,-6.9662 9.9e-5,-4.2393 -0.04123,-5.130598 -0.31965,-6.893175 C 96.319064,37.459851 94.549419,32.091333 92.039824,27.456364 87.864323,19.744637 81.818925,13.417844 74.43792,9.0351396 68.24025,5.3550782 61.540057,3.1810805 54.513748,2.5703852 51.868435,2.3404662 45.014589,2.4703294 43.095909,2.7867245 35.509703,4.0377086 29.47859,6.3715238 23.45831,10.38574 18.265236,13.848392 13.341355,18.843892 9.9535944,24.086888 5.5915966,30.837644 2.9825293,38.559264 2.4981942,46.151387 c -0.2992496,4.690844 -0.1253051,8.66653 0.5385792,12.309797 1.6979589,9.318068 6.1757427,17.994999 12.7840826,24.772655 7.504177,7.696447 16.65796,12.353683 27.574675,14.029364 1.641603,0.25198 2.519521,0.280846 7.116011,0.233967 4.831098,-0.04927 5.409341,-0.08349 7.354135,-0.435152 z"
       style="fill:#7373ff;stroke-width:0.149811" />
  </g>
</svg>
